# xmcd
#
# Track frame offsets: 
#        150
#        20707
#        43210
#
# Disc length: 872 seconds
#
# Revision: 0
# Processed by: cddbd v1.5.2PL0 Copyright (c) Steve Scherf et al.
# Submitted via: ExactAudioCopy v0.95b4
#
DISCID=23036603
DTITLE=Joe - Good Girls (Promo CDS)
DYEAR=1997
DGENRE=R&B
TTITLE0=Good Girls (Radio Edit)
TTITLE1=Good Girls (LP Version)
TTITLE2=Good Girls (Instrumental Version)
EXTD=
EXTT0=
EXTT1=
EXTT2=
PLAYORDER=
